<svg xmlns="http://www.w3.org/2000/svg" xmlns:xlink="http://www.w3.org/1999/xlink" width="48" zoomAndPan="magnify" viewBox="0 0 36 36.000001" height="48" preserveAspectRatio="xMidYMid meet" version="1.0"><defs><clipPath id="e1b7c40119"><path d="M 0.488281 0 L 35.511719 0 L 35.511719 35.027344 L 0.488281 35.027344 Z M 0.488281 0 " clip-rule="nonzero"/></clipPath></defs><g clip-path="url(#e1b7c40119)"><path fill="#ff4343" d="M 9.242188 0 L 26.757812 0 C 27.332031 0 27.902344 0.0546875 28.464844 0.167969 C 29.027344 0.28125 29.578125 0.445312 30.109375 0.667969 C 30.640625 0.886719 31.144531 1.15625 31.621094 1.476562 C 32.101562 1.796875 32.542969 2.160156 32.949219 2.566406 C 33.355469 2.972656 33.71875 3.414062 34.039062 3.890625 C 34.355469 4.371094 34.625 4.875 34.847656 5.40625 C 35.066406 5.9375 35.234375 6.484375 35.34375 7.046875 C 35.457031 7.613281 35.511719 8.183594 35.511719 8.757812 L 35.511719 26.269531 C 35.511719 26.84375 35.457031 27.414062 35.34375 27.980469 C 35.234375 28.542969 35.066406 29.089844 34.847656 29.621094 C 34.625 30.152344 34.355469 30.65625 34.039062 31.136719 C 33.71875 31.613281 33.355469 32.054688 32.949219 32.460938 C 32.542969 32.867188 32.101562 33.230469 31.621094 33.550781 C 31.144531 33.871094 30.640625 34.140625 30.109375 34.359375 C 29.578125 34.582031 29.027344 34.746094 28.464844 34.859375 C 27.902344 34.972656 27.332031 35.027344 26.757812 35.027344 L 9.242188 35.027344 C 8.667969 35.027344 8.097656 34.972656 7.535156 34.859375 C 6.972656 34.746094 6.421875 34.582031 5.890625 34.359375 C 5.359375 34.140625 4.855469 33.871094 4.378906 33.550781 C 3.898438 33.230469 3.457031 32.867188 3.050781 32.460938 C 2.644531 32.054688 2.28125 31.613281 1.960938 31.136719 C 1.644531 30.65625 1.375 30.152344 1.152344 29.621094 C 0.933594 29.089844 0.765625 28.542969 0.65625 27.980469 C 0.542969 27.414062 0.488281 26.84375 0.488281 26.269531 L 0.488281 8.757812 C 0.488281 8.183594 0.542969 7.613281 0.65625 7.046875 C 0.765625 6.484375 0.933594 5.9375 1.152344 5.40625 C 1.375 4.875 1.644531 4.371094 1.960938 3.890625 C 2.28125 3.414062 2.644531 2.972656 3.050781 2.566406 C 3.457031 2.160156 3.898438 1.796875 4.378906 1.476562 C 4.855469 1.15625 5.359375 0.886719 5.890625 0.667969 C 6.421875 0.445312 6.972656 0.28125 7.535156 0.167969 C 8.097656 0.0546875 8.667969 0 9.242188 0 Z M 9.242188 0 " fill-opacity="1" fill-rule="nonzero"/></g><path fill="#0e0c15" d="M 22.378906 24.082031 L 13.621094 24.082031 C 12.414062 24.082031 11.433594 23.101562 11.433594 21.890625 L 11.433594 13.136719 C 11.433594 11.925781 12.414062 10.945312 13.621094 10.945312 L 22.378906 10.945312 C 23.585938 10.945312 24.566406 11.925781 24.566406 13.136719 L 24.566406 21.890625 C 24.566406 23.101562 23.585938 24.082031 22.378906 24.082031 Z M 21.648438 14.898438 L 18.300781 18.242188 L 19.460938 18.242188 C 19.863281 18.242188 20.1875 18.570312 20.1875 18.972656 C 20.1875 19.375 19.863281 19.703125 19.460938 19.703125 L 16.539062 19.703125 C 16.136719 19.703125 15.8125 19.375 15.8125 18.972656 L 15.8125 16.054688 C 15.8125 15.652344 16.136719 15.324219 16.539062 15.324219 C 16.945312 15.324219 17.269531 15.652344 17.269531 16.054688 L 17.269531 17.210938 L 20.617188 13.863281 L 19.460938 13.863281 C 19.054688 13.863281 18.730469 13.539062 18.730469 13.136719 C 18.730469 12.730469 19.054688 12.40625 19.460938 12.40625 L 22.378906 12.40625 C 22.78125 12.40625 23.109375 12.730469 23.109375 13.136719 L 23.109375 16.054688 C 23.109375 16.457031 22.78125 16.785156 22.378906 16.785156 C 21.976562 16.785156 21.648438 16.457031 21.648438 16.054688 Z M 21.648438 14.898438 " fill-opacity="1" fill-rule="evenodd"/></svg>