<svg xmlns="http://www.w3.org/2000/svg" xmlns:xlink="http://www.w3.org/1999/xlink" width="48" zoomAndPan="magnify" viewBox="0 0 36 36.000001" height="48" preserveAspectRatio="xMidYMid meet" version="1.0"><defs><clipPath id="e198550870"><path d="M 0.488281 0 L 35.511719 0 L 35.511719 35.027344 L 0.488281 35.027344 Z M 0.488281 0 " clip-rule="nonzero"/></clipPath></defs><g clip-path="url(#e198550870)"><path fill="#38b6ff" d="M 9.242188 0 L 26.757812 0 C 27.332031 0 27.902344 0.0546875 28.464844 0.167969 C 29.027344 0.28125 29.578125 0.445312 30.109375 0.667969 C 30.640625 0.886719 31.144531 1.15625 31.621094 1.476562 C 32.101562 1.796875 32.542969 2.160156 32.949219 2.566406 C 33.355469 2.972656 33.71875 3.414062 34.039062 3.890625 C 34.355469 4.371094 34.625 4.875 34.847656 5.40625 C 35.066406 5.9375 35.234375 6.484375 35.34375 7.046875 C 35.457031 7.613281 35.511719 8.183594 35.511719 8.757812 L 35.511719 26.269531 C 35.511719 26.84375 35.457031 27.414062 35.34375 27.980469 C 35.234375 28.542969 35.066406 29.089844 34.847656 29.621094 C 34.625 30.152344 34.355469 30.65625 34.039062 31.136719 C 33.71875 31.613281 33.355469 32.054688 32.949219 32.460938 C 32.542969 32.867188 32.101562 33.230469 31.621094 33.550781 C 31.144531 33.871094 30.640625 34.140625 30.109375 34.359375 C 29.578125 34.582031 29.027344 34.746094 28.464844 34.859375 C 27.902344 34.972656 27.332031 35.027344 26.757812 35.027344 L 9.242188 35.027344 C 8.667969 35.027344 8.097656 34.972656 7.535156 34.859375 C 6.972656 34.746094 6.421875 34.582031 5.890625 34.359375 C 5.359375 34.140625 4.855469 33.871094 4.378906 33.550781 C 3.898438 33.230469 3.457031 32.867188 3.050781 32.460938 C 2.644531 32.054688 2.28125 31.613281 1.960938 31.136719 C 1.644531 30.65625 1.375 30.152344 1.152344 29.621094 C 0.933594 29.089844 0.765625 28.542969 0.65625 27.980469 C 0.542969 27.414062 0.488281 26.84375 0.488281 26.269531 L 0.488281 8.757812 C 0.488281 8.183594 0.542969 7.613281 0.65625 7.046875 C 0.765625 6.484375 0.933594 5.9375 1.152344 5.40625 C 1.375 4.875 1.644531 4.371094 1.960938 3.890625 C 2.28125 3.414062 2.644531 2.972656 3.050781 2.566406 C 3.457031 2.160156 3.898438 1.796875 4.378906 1.476562 C 4.855469 1.15625 5.359375 0.886719 5.890625 0.667969 C 6.421875 0.445312 6.972656 0.28125 7.535156 0.167969 C 8.097656 0.0546875 8.667969 0 9.242188 0 Z M 9.242188 0 " fill-opacity="1" fill-rule="nonzero"/></g><path fill="#0e0c15" d="M 23.109375 21.527344 C 23.109375 20.921875 22.617188 20.433594 22.011719 20.433594 L 15.082031 20.433594 C 13.066406 20.433594 11.433594 18.800781 11.433594 16.785156 C 11.433594 14.769531 13.066406 13.136719 15.082031 13.136719 L 17.269531 13.136719 L 17.269531 14.59375 L 15.082031 14.59375 C 13.871094 14.59375 12.890625 15.574219 12.890625 16.785156 C 12.890625 17.992188 13.871094 18.972656 15.082031 18.972656 L 22.011719 18.972656 C 23.425781 18.972656 24.566406 20.117188 24.566406 21.527344 C 24.566406 22.9375 23.425781 24.082031 22.011719 24.082031 L 12.164062 24.082031 C 11.757812 24.082031 11.433594 23.753906 11.433594 23.351562 C 11.433594 22.949219 11.757812 22.621094 12.164062 22.621094 L 22.011719 22.621094 C 22.617188 22.621094 23.109375 22.132812 23.109375 21.527344 Z M 23.109375 21.527344 " fill-opacity="1" fill-rule="evenodd"/><path fill="#0e0c15" d="M 23.835938 11.675781 L 20.917969 11.675781 L 20.917969 13.136719 L 23.835938 13.136719 C 24.242188 13.136719 24.566406 12.808594 24.566406 12.40625 C 24.566406 12.003906 24.242188 11.675781 23.835938 11.675781 Z M 23.835938 11.675781 " fill-opacity="1" fill-rule="nonzero"/><path fill="#0e0c15" d="M 23.835938 14.59375 L 20.917969 14.59375 L 20.917969 16.054688 L 23.835938 16.054688 C 24.242188 16.054688 24.566406 15.726562 24.566406 15.324219 C 24.566406 14.921875 24.242188 14.59375 23.835938 14.59375 Z M 23.835938 14.59375 " fill-opacity="1" fill-rule="nonzero"/><path fill="#0e0c15" d="M 15.8125 13.863281 C 15.8125 12.253906 17.117188 10.945312 18.730469 10.945312 L 21.648438 10.945312 C 22.050781 10.945312 22.378906 11.273438 22.378906 11.675781 L 22.378906 16.054688 C 22.378906 16.457031 22.050781 16.785156 21.648438 16.785156 L 18.730469 16.785156 C 17.117188 16.785156 15.8125 15.476562 15.8125 13.863281 Z M 15.8125 13.863281 " fill-opacity="1" fill-rule="nonzero"/></svg>